# xmcd
#
# Track frame offsets:
#  150
#  21576
#  32100
#  51272
#  78271
#  99337
#  119218
#  137722
#  161779
#  182721
#  202125
#
# Disc length: 2882 seconds
#
# Revision: 1
# Processed by: cddbd v1.5.1PL2 Copyright (c) Steve Scherf et al.
# Submitted via: Collectorz.com_Music_Collector 6.11
#
DISCID=a10b400b
DTITLE=Garner, Larry - Standing Room Only
DYEAR=1998
DGENRE=Blues
TTITLE0=A Driving Woman
TTITLE1=Last Encore
TTITLE2=Don't Start Crying
TTITLE3=Drifter
TTITLE4=PMS
TTITLE5=Strangers Blues
TTITLE6=Keep The Money
TTITLE7=Cold Chills
TTITLE8=Do Your Personal Thing
TTITLE9=I'll Run Cross You
TTITLE10=Out In The Country
EXTD=
EXTT0=
EXTT1=
EXTT2=
EXTT3=
EXTT4=
EXTT5=
EXTT6=
EXTT7=
EXTT8=
EXTT9=
EXTT10=
PLAYORDER=
